<?xml version="1.0" encoding="utf-8"?>
<!-- Generator: Adobe Illustrator 15.0.0, SVG Export Plug-In . SVG Version: 6.00 Build 0)  -->
<!DOCTYPE svg PUBLIC "-//W3C//DTD SVG 1.1//EN" "http://www.w3.org/Graphics/SVG/1.1/DTD/svg11.dtd">
<svg version="1.1" id="Layer_1" xmlns="http://www.w3.org/2000/svg" xmlns:xlink="http://www.w3.org/1999/xlink" x="0px" y="0px"
	 width="357px" height="357px" viewBox="127.5 0 357 357" enable-background="new 127.5 0 357 357" xml:space="preserve">
<path opacity="0.9" fill="#FFFFFF" d="M288.15,357v-30.345l0.179-4.284L396.5,214.2h52.479c19.635,0,35.521,15.886,35.521,35.7
	V321.3c0,19.717-15.983,35.7-35.7,35.7H288.15z M288.15,297.381V95.319l37.127-36.949c13.844-13.9,36.336-13.946,50.235-0.102
	c0.034,0.034,0.068,0.068,0.103,0.102l50.516,50.515c13.842,13.925,13.842,36.413,0,50.337L288.15,297.381z M127.5,35.521
	C127.5,16.065,143.387,0,163.2,0h71.4c19.716,0,35.7,15.983,35.7,35.7v285.6c0,19.717-15.983,35.7-35.7,35.7h-71.4
	c-19.717,0-35.7-15.983-35.7-35.7V35.7V35.521z M198.9,303.45c9.858,0,17.85-7.991,17.85-17.851c0-9.857-7.992-17.85-17.85-17.85
	s-17.85,7.992-17.85,17.85C181.05,295.459,189.042,303.45,198.9,303.45z"/>
</svg>
