<?xml version="1.0" encoding="utf-8"?>
<!-- Generator: Adobe Illustrator 15.0.0, SVG Export Plug-In . SVG Version: 6.00 Build 0)  -->
<!DOCTYPE svg PUBLIC "-//W3C//DTD SVG 1.1//EN" "http://www.w3.org/Graphics/SVG/1.1/DTD/svg11.dtd">
<svg version="1.1" id="Layer_2" xmlns="http://www.w3.org/2000/svg" xmlns:xlink="http://www.w3.org/1999/xlink" x="0px" y="0px"
	 width="357px" height="357px" viewBox="127.5 0 357 357" enable-background="new 127.5 0 357 357" xml:space="preserve">
<rect x="127.5" y="170.83" fill="#B7B7B7" width="142.8" height="81.66"/>
<path fill="#B7B7B7" d="M127.5,321.3c0,19.717,15.983,35.7,35.7,35.7h71.4c19.716,0,35.7-15.983,35.7-35.7v-63.81H127.5V321.3z
	 M198.9,289.75c9.858,0,17.85,7.992,17.85,17.85c0,9.859-7.992,17.851-17.85,17.851s-17.85-7.991-17.85-17.851
	C181.05,297.742,189.042,289.75,198.9,289.75z"/>
<path fill="#B7B7B7" d="M234.6,0h-71.4c-19.813,0-35.7,16.065-35.7,35.521V35.7v43.46h142.8V35.7C270.3,15.983,254.316,0,234.6,0z"
	/>
<rect x="127.5" y="84.16" fill="#B7B7B7" width="142.8" height="81.67"/>
<polygon fill="#B7B7B7" points="288.15,297.381 330.469,256.751 287.944,214.2 "/>
<path fill="#B7B7B7" d="M426.064,110.741l-50.472-50.502c-14.006-14.015-36.6-13.895-50.361-0.142l-0.127,0.126l-30.739,30.722
	L395.309,191.95l30.74-30.722C439.995,147.291,440.002,124.687,426.064,110.741z"/>
<polygon fill="#B7B7B7" points="288.15,96.875 288.148,207.331 334.006,253.216 391.772,195.484 290.828,94.479 "/>
<polygon fill="#B7B7B7" points="287.944,323.5 287.944,357 313.24,357 313.319,297.381 "/>
<path fill="#B7B7B7" d="M484.07,321.3V249.9c0-19.814-16.065-35.701-35.521-35.701h-0.18H404.91V357h43.459
	C468.086,357,484.07,341.017,484.07,321.3z"/>
<polygon fill="#B7B7B7" points="396.5,214.199 318.24,292.46 318.24,357 399.91,357 399.91,214.199 "/>
</svg>
